Coordinates
nRows=14
nColumns=24

# SIMM Motion File Header:
name Coordinates
datacolumns 24
datarows 14
otherdata 1
range 1.06233000000000000000 1.07533000000000010000

Units are S.I. units (second, meters, Newtons, ...)
Angles are in degrees.

endheader
time	pelvis_tx	pelvis_ty	pelvis_tz	pelvis_tilt	pelvis_list	pelvis_rotation	hip_flexion_r	hip_adduction_r	hip_rotation_r	knee_angle_r	ankle_angle_r	subtalar_angle_r	mtp_angle_r	hip_flexion_l	hip_adduction_l	hip_rotation_l	knee_angle_l	ankle_angle_l	subtalar_angle_l	mtp_angle_l	lumbar_extension	lumbar_bending	lumbar_rotation
      1.06233000000000000000	      2.08761603726051610000	      0.82764199628391233000	     -0.26215055737266652000	     -3.57683780915781440000	     -2.49386918265970390000	     -0.23694391516415514000	      5.80956293907752390000	      7.55574388220313780000	      0.77050125292671656000	     -8.62622715170070010000	      3.90655446706544570000	      0.00000000000002345691	      0.00000000000002102893	     27.74208904382427900000	     -6.24101575048516730000	      0.39398333933309732000	    -54.98143037209711500000	      6.34939452419429800000	      0.00000000000000751672	     -0.00000000000035315370	      6.38024683393645820000	     -0.86119988349193510000	     14.57889505997576200000
      1.06333000000000010000	      2.08822196592195340000	      0.82761026094796442000	     -0.26214092696787888000	     -3.58974531082730500000	     -2.46536868178084450000	     -0.27023027428968605000	      5.75006429961976910000	      7.53592309728477440000	      0.79534686143205702000	     -8.59299849092019490000	      3.93662223071019700000	      0.00000000000002346206	      0.00000000000002141068	     27.82371889971820900000	     -6.19297601675918940000	      0.40811208794783810000	    -54.76735371802852400000	      6.41368164627560590000	      0.00000000000000763010	     -0.00000000000035397392	      6.39222379756809200000	     -0.89280889964231824000	     14.61638103470258300000
      1.06433000000000000000	      2.08882817002955030000	      0.82757776411413486000	     -0.26213183551529562000	     -3.60279912336127190000	     -2.43703766839672650000	     -0.30366191845030116000	      5.69076273086447240000	      7.51618836069627250000	      0.82055021292787933000	     -8.55986874252202230000	      3.96677762170984890000	      0.00000000000002346364	      0.00000000000002180292	     27.90463497195759100000	     -6.14513290640396010000	      0.42238667566190474000	    -54.55129474387521800000	      6.47646509326167500000	      0.00000000000000774419	     -0.00000000000035479503	      6.40447772030994590000	     -0.92402891028132805000	     14.65360165615086000000
      1.06533000000000010000	      2.08943465723492320000	      0.82754451635337067000	     -0.26212328494682841000	     -3.61598993669209930000	     -2.40888567264362810000	     -0.33723409101554780000	      5.63164953840108760000	      7.49654834062849670000	      0.84608418351101700000	     -8.52683962036268460000	      3.99701831528116760000	      0.00000000000002346351	      0.00000000000002218747	     27.98482520702949800000	     -6.09749866256510040000	      0.43681761098510691000	    -54.33326942272434900000	      6.53773826726938800000	      0.00000000000000785937	     -0.00000000000035561600	      6.41699695314856820000	     -0.95484849730752075000	     14.69054530897570000000
      1.06633000000000000000	      2.09004143499722920000	      0.82751052831117877000	     -0.26211527730949619000	     -3.62930839726768580000	     -2.38092197540815010000	     -0.37094190904314556000	      5.57271606537889940000	      7.47701144486547960000	      0.87192151986717281000	     -8.49391300064323040000	      4.02734199018002940000	      0.00000000000002346263	      0.00000000000002256899	     28.06427769638859700000	     -6.05008515855401810000	      0.45141528664733355000	    -54.11329423396302500000	      6.59749512183137290000	      0.00000000000000797421	     -0.00000000000035643566	      6.42976972189916560000	     -0.98525665095343329000	     14.72720062581547600000
      1.06733000000000010000	      2.09064851058117010000	      0.82747581068362752000	     -0.26210781477191036000	     -3.64274512047030270000	     -2.35315559875742910000	     -0.40478036772437065000	      5.51395370776725800000	      7.45758581081185670000	      0.89803486794426446000	     -8.46109092311862200000	      4.05774632757481070000	      0.00000000000002347811	      0.00000000000002289865	     28.14298069259347600000	     -6.00290388770355410000	      0.46618996897848797000	    -53.89138616210458800000	      6.65573015082276690000	      0.00000000000000808846	     -0.00000000000035725600	      6.44278414265032940000	     -1.01524278182048660000	     14.76355651742635700000
      1.06833000000000000000	      2.09125589105660570000	      0.82744037419479244000	     -0.26210089962511246000	     -3.65629070273564500000	     -2.32559529678330580000	     -0.43874434491552028000	      5.45535392897919370000	      7.43827929637801070000	      0.92439680126862100000	     -8.42837559136888540000	      4.08822901103186890000	      0.00000000000002353290	      0.00000000000002308343	     28.22092262457128300000	     -5.95596595463473210000	      0.48115178733531277000	    -53.66756269454027300000	      6.71243837544656060000	      0.00000000000000820170	     -0.00000000000035807633	      6.45602823702274440000	     -1.04479673163194890000	     14.79960218834484200000
      1.06933000000000010000	      2.09186358329994390000	      0.82740422957763138000	     -0.26209453427381918000	     -3.66993573324536730000	     -2.29824954735315010000	     -0.47282860589874703000	      5.39690827373623880000	      7.41909947251236530000	      0.95097985028602783000	     -8.39576937363606570000	      4.11878773508623390000	      0.00000000000002357937	      0.00000000000002328356	     28.29809211146877200000	     -5.90928206909157530000	      0.49631072356576228000	    -53.44184181761779200000	      6.76761532804825800000	      0.00000000000000831582	     -0.00000000000035889791	      6.46948994700049430000	     -1.07390878169245600000	     14.83532712886414200000
      1.07033000000000000000	      2.09247159399536380000	      0.82736738755678430000	     -0.26208872122428928000	     -3.68367080548506780000	     -2.27112654430576330000	     -0.50702780822478488000	      5.33860838170523170000	      7.40005361640736760000	      0.97775653176838362000	     -8.36327480407305220000	      4.14942021122664870000	      0.00000000000002361019	      0.00000000000002357289	     28.37447797601140900000	     -5.86286254082963150000	      0.51167660151806038000	    -53.21424201219787900000	      6.82125703487182910000	      0.00000000000000843023	     -0.00000000000035971733	      6.48315714953372790000	     -1.10256966040535610000	     14.87072109903295000000
      1.07133000000000010000	      2.09307992963581760000	      0.82732985883154520000	     -0.26208346307189206000	     -3.69748652876527340000	     -2.24423418959313100000	     -0.54133650652806564000	      5.28044600098160370000	      7.38114870466549800000	      1.00469937763991310000	     -8.33089458326538160000	      4.18012417135295420000	      0.00000000000002363529	      0.00000000000002390106	     28.45006925779438200000	     -5.81671727453479190000	      0.52725907657829751000	    -52.98478224914422400000	      6.87335999872316530000	      0.00000000000000854486	     -0.00000000000036053550	      6.49701767110970430000	     -1.13077055077637150000	     14.90577411190137300000
      1.07233000000000000000	      2.09368859652390470000	      0.82729165405875260000	     -0.26207876248860790000	     -3.71137353973659900000	     -2.21758008540968770000	     -0.57574915733742438000	      5.22241300157847290000	      7.36239140649619190000	      1.03178096378270200000	     -8.29863157870847700000	      4.21089737119062240000	      0.00000000000002365989	      0.00000000000002423155	     28.52485522658705400000	     -5.77085576479765190000	      0.54306762522668972000	    -52.75348198479726800000	      6.92392118163439910000	      0.00000000000000866049	     -0.00000000000036135487	      6.51105930236093310000	     -1.15850309788465090000	     14.94047641674682400000
      1.07333000000000010000	      2.09429760077261880000	      0.82725278383559475000	     -0.26207462221045519000	     -3.72532251390010490000	     -2.19117152631308000000	     -0.61026012388363560000	      5.16450138892656610000	      7.34378807694896980000	      1.05897393884139990000	     -8.26648882526909290000	      4.24173759370505720000	      0.00000000000002368870	      0.00000000000002453497	     28.59882539565291600000	     -5.72528709114834730000	      0.55911153461219798000	    -52.52036115643079500000	      6.97293798752961090000	      0.00000000000000877623	     -0.00000000000036217490	      6.52526981271139480000	     -1.18575941631683230000	     14.97481848228513200000
      1.07433000000000000000	      2.09490694830596610000	      0.82721325868233209000	     -0.26207104502483936000	     -3.73932417711289310000	     -2.16501549133674450000	     -0.64486368090322521000	      5.10670331738510620000	      7.32534475018283350000	      1.08625105302716430000	     -8.23446952563175930000	      4.27264265251573420000	      0.00000000000002373033	      0.00000000000002480536	     28.67196953508418400000	     -5.68001991315221580000	      0.57539989214495868000	    -52.28544017769322500000	      7.02040824489155570000	      0.00000000000000889091	     -0.00000000000036299491	      6.53963696505964620000	     -1.21253209756409470000	     15.00879097986688900000
      1.07533000000000010000	      2.09551664485968290000	      0.82717308902505104000	     -0.26206803375823412000	     -3.75336931705490070000	     -2.13911863617950670000	     -0.67955401946289629000	      5.04901110369146270000	      7.30706713281636770000	      1.11358518683654890000	     -8.20257705069887070000	      4.30361039487923410000	      0.00000000000002377609	      0.00000000000002506051	     28.74427768507520800000	     -5.63506246562132060000	      0.59194157511420376000	    -52.04873993395733600000	      7.06633018939268620000	      0.00000000000000900474	     -0.00000000000036381360	      6.55414853054747140000	     -1.23881421726615870000	     15.04238476742195000000
